<?xml version="1.0" encoding="UTF-8" standalone="no"?>
<svg
   width="64"
   height="64"
   viewBox="0 0 16.93344 16.933"
   xml:space="preserve"
   version="1.1"
   id="svg16"
   xmlns:xlink="http://www.w3.org/1999/xlink"
   xmlns="http://www.w3.org/2000/svg"
   xmlns:svg="http://www.w3.org/2000/svg"><defs
     id="defs8"><linearGradient
       id="a"><stop
         style="stop-color:#f60;stop-opacity:1"
         offset="0"
         id="stop2" /><stop
         style="stop-color:#f0f;stop-opacity:1"
         offset="1"
         id="stop4" /></linearGradient><linearGradient
       xlink:href="#a"
       id="b"
       x1="9.9110003"
       y1="27.725"
       x2="19.257"
       y2="36.005001"
       gradientUnits="userSpaceOnUse"
       gradientTransform="matrix(1.4025322,0,0,1.4025322,-12.465751,-36.617446)" /></defs><path
     style="fill:url(#b);fill-opacity:1;stroke-width:0.0642468"
     d="M 9.2081621,1.6849929 C 8.9655959,1.6861491 8.8847393,1.7311962 8.7877133,1.9160089 8.7288016,2.0280518 8.6329329,2.0615489 8.260997,2.0973564 7.8128253,2.1412499 7.80474,2.1400938 7.6222379,1.9448858 7.4928695,1.8062763 7.3796717,1.7485223 7.2364412,1.7485223 c -0.3985027,0 -0.6537749,0.4758928 -0.432,0.8050905 0.076241,0.1131979 0.035814,0.2194652 -0.3696248,0.9841278 L 5.980869,4.3959648 5.6851691,4.4132926 C 5.3247844,4.4352364 5.0937681,4.5784693 4.9574692,4.8614636 4.7495552,5.301549 4.9020258,5.8120943 5.3039931,6.0200088 5.5165279,6.1297408 5.5396289,6.2533344 5.4587735,6.8401153 5.4241154,7.102318 5.3987058,7.1358153 5.2231377,7.1716232 4.9320573,7.2293763 4.6305818,7.4904247 4.468871,7.8230879 4.2678862,8.2400709 4.3164004,8.795665 4.583226,9.1248633 4.828102,9.4274937 5.2566374,9.6515796 5.5881455,9.6492687 A 1.420748,1.420748 0 0 0 6.5191388,9.2449904 L 6.6716094,9.0798138 7.2445289,9.3674296 c 0.3153375,0.158245 0.5833157,0.3234216 0.5971766,0.3661603 0.012705,0.042739 0.040427,0.1570901 0.062368,0.2541171 0.023097,0.106263 0.113199,0.21369 0.2298615,0.273754 l 0.1917421,0.09934 v 0.622587 c 0,0.591401 -0.00811,0.628364 -0.1651755,0.754268 a 0.70575366,0.70575366 0 0 0 -0.2113798,0.354609 c -0.039271,0.190588 -0.1155112,0.265668 -0.5463527,0.527871 -0.4042782,0.248341 -0.5232516,0.294544 -0.6225885,0.241411 a 0.47127249,0.47127249 0 0 0 -0.2887695,-0.0231 c -0.3234217,0.08085 -0.3754005,0.572919 -0.078541,0.71615 0.1952094,0.09471 0.1928984,0.09471 0.3603848,-0.0231 a 0.6352938,0.6352938 0 0 0 0.19983,-0.241412 c 0.028878,-0.07623 0.2864585,-0.27722 0.5729194,-0.445861 0.4250684,-0.254117 0.541732,-0.296854 0.6445336,-0.241411 0.2067592,0.110887 0.4273792,0.07739 0.6075728,-0.0901 0.2460308,-0.227551 0.2032934,-0.581006 -0.097026,-0.79354 -0.1016503,-0.07277 -0.1178233,-0.175571 -0.1178233,-0.7508 0,-0.611038 0.010369,-0.669947 0.1282135,-0.706909 0.071617,-0.0231 0.1744184,-0.128216 0.2298619,-0.234483 C 9.2173999,9.4933369 8.6283098,8.9966534 8.0865779,9.3073691 7.9063855,9.4113315 7.8925246,9.4078633 7.3623426,9.1306425 L 6.8206106,8.8476473 6.8390838,8.4549203 C 6.8679736,7.8196257 6.5815078,7.3656791 6.0363101,7.1785561 L 5.7891232,7.0930807 5.7706392,6.6056366 C 5.7533102,6.1701716 5.7649192,6.117038 5.8676652,6.117038 6.0929059,6.117038 6.435964,5.8190272 6.5260607,5.5452735 6.6277111,5.2368674 6.5468462,4.8637766 6.3377832,4.6743435 6.2118794,4.5599908 6.215344,4.5484397 6.672756,3.6682692 7.0701038,2.9012964 7.1555798,2.7765479 7.287258,2.7765479 c 0.085477,0 0.2287066,-0.080855 0.3234228,-0.1825026 0.1466951,-0.1559359 0.2367907,-0.188278 0.641069,-0.2252406 0.4354657,-0.040428 0.479358,-0.033497 0.5856254,0.098182 C 8.947106,2.6032861 8.947106,2.6275429 8.8154342,3.1196068 L 8.6802898,3.6313034 8.3799692,3.7179344 A 0.99567871,0.99567871 0 0 0 7.9075416,4.0101692 C 7.7527612,4.194982 7.7377454,4.2550464 7.7631562,4.598105 c 0.023097,0.3268874 0.055443,0.4054328 0.2206201,0.5486625 0.1062626,0.092407 0.2460321,0.1975189 0.309562,0.2344815 0.1016503,0.057753 0.1097308,0.1201279 0.069304,0.497839 -0.040427,0.3846417 -0.06238,0.4354652 -0.2009838,0.4701177 -0.084321,0.020794 -0.2414109,0.1386094 -0.3476783,0.2587377 -0.6295178,0.7161494 0.3673152,1.6979673 1.1227367,1.1054114 l 0.1651767,-0.1305241 0.481669,0.2760642 c 0.3557637,0.2032934 0.4724284,0.3014755 0.4435504,0.3754005 -0.166332,0.4273793 -0.02772,0.9460102 0.351145,1.3167911 l 0.250653,0.2425663 -0.145541,0.3869512 c -0.09587,0.254119 -0.203294,0.420449 -0.317647,0.489755 -0.3211127,0.194053 -0.2957016,0.556747 0.0462,0.679186 0.131679,0.04621 0.196363,0.0335 0.303786,-0.06468 0.114356,-0.102805 0.130524,-0.170951 0.09934,-0.3985 -0.02656,-0.200985 0,-0.366162 0.103962,-0.617968 l 0.139765,-0.345369 0.392727,-0.03119 c 0.428534,-0.03465 0.829347,-0.237943 1.008384,-0.5116968 a 1.2971545,1.2971545 0 0 0 -0.554449,-1.919749 1.1631652,1.1631652 0 0 0 -1.284448,0.202139 c -0.118968,0.1039576 -0.243722,0.1894333 -0.278374,0.1894333 -0.03466,0 -0.2552736,-0.1062674 -0.4897549,-0.2367915 C 9.2485839,7.3899324 9.2266377,7.3668306 9.2266377,7.1427452 c 0,-0.2841498 -0.2206201,-0.637604 -0.4747374,-0.7588875 -0.1790375,-0.086631 -0.1813484,-0.091251 -0.1363,-0.5140102 0.050819,-0.478203 0.068148,-0.5232511 0.1917435,-0.5232511 0.1570913,0 0.4735825,-0.3199572 0.5509733,-0.5567487 C 9.4588113,4.487217 9.3548608,4.1268323 9.0961132,3.8854208 L 8.9066866,3.7086922 9.0418306,3.2073878 C 9.1561833,2.7892491 9.2081621,2.6922224 9.3606328,2.6125219 9.8526965,2.3584044 9.7418088,1.6826827 9.2104719,1.6849929 Z M 5.107629,2.1620408 A 0.57176442,0.57176442 0 0 0 4.5358655,2.7476662 c 0,0.1848128 -0.049663,0.2460319 -0.4135184,0.5059249 C 3.667245,3.5770134 3.6314379,3.5885644 3.4246775,3.4568852 2.79285,3.0572275 1.9507962,3.5989598 2.0501332,4.3405211 2.095184,4.6743391 2.262668,4.8984245 2.5872456,5.0566702 2.8205717,5.1721777 2.8529141,5.2172266 2.8887211,5.4678786 2.967262,6.0200067 2.9406964,6.2186807 2.7789903,6.3053113 2.6484646,6.3746156 2.5641434,6.3572902 2.1356093,6.1736326 1.8653201,6.0581238 1.6435452,5.9229802 1.6435452,5.8756218 c 0,-0.169797 -0.2009836,-0.4712724 -0.3534541,-0.5290264 -0.1928983,-0.073925 -0.52325118,0.03234 -0.61103726,0.1963633 -0.16171117,0.5763848 0.0265669,0.3557645 0.16171106,0.7034436 0.0727701,0.060064 0.0958723,0.2217755 0.0958723,0.6560852 0,0.5579035 -0.00578,0.5833151 -0.19174321,0.7565773 -0.23794685,0.22293 -0.25065284,0.4620316 -0.0346537,0.6780322 A 0.51516557,0.51516557 0 0 0 1.4310101,8.354427 C 1.6504752,8.1488205 1.6308391,7.8427243 1.3871174,7.6382748 1.1988389,7.4788743 1.1942186,7.4603928 1.1942186,6.9001789 c 0,-0.568299 0.00229,-0.5752296 0.1801925,-0.6491547 0.1570909,-0.064685 0.2402565,-0.046203 0.674566,0.1513155 0.4470169,0.2044493 0.494375,0.2425665 0.494375,0.4077432 0,0.3488339 0.4296891,0.6456896 0.7554216,0.5220958 C 3.603715,7.2166711 3.6995874,7.0838369 3.6995874,6.7823609 3.6995874,6.5039865 3.6603166,6.438147 3.3241857,6.1667036 3.2132988,6.0766068 3.184421,5.9784254 3.1763357,5.6688638 3.170615,5.4563294 3.1647751,5.2530354 3.1601628,5.2183829 3.1567064,5.1837296 3.2548766,5.1028753 3.3796268,5.0381907 3.5274779,4.959645 3.6568463,4.8152604 3.7596491,4.6108111 3.8924833,4.345143 3.9051881,4.2665975 3.8497387,4.0563733 L 3.7839026,3.8103398 4.2286074,3.5146396 C 4.6432818,3.2397305 4.6871742,3.2235594 4.8870029,3.2893989 5.1619116,3.3818055 5.4033241,3.3182743 5.56388,3.1138268 A 0.57522969,0.57522969 0 0 0 5.3640572,2.2267252 0.57291951,0.57291951 0 0 0 5.107629,2.1620408 Z m 6.120768,0.041583 A 0.80855576,0.80855576 0 0 0 10.449874,3.24204 c 0.149004,0.5405773 0.847828,0.7565773 1.277517,0.3950373 l 0.198674,-0.1674867 0.480513,0.2113799 0.480513,0.2113793 V 4.5507454 L 12.398492,4.7551946 11.90874,4.9596435 11.707754,4.8152586 c -0.420448,-0.2991652 -0.972576,-0.1362994 -1.218608,0.3580749 -0.209069,0.4216038 0.04505,0.9333042 0.535958,1.0799992 0.224084,0.066995 0.284149,0.057754 0.597176,-0.094716 l 0.348833,-0.1709519 0.546353,0.2910799 c 0.518631,0.276064 0.548663,0.3037861 0.586781,0.5428874 0.02772,0.1767273 0.103962,0.3037862 0.256428,0.4320001 0.204449,0.1709519 0.219464,0.2113794 0.262203,0.7115293 0.03811,0.4539462 0.03003,0.5359564 -0.05891,0.5694549 -0.164022,0.063524 -0.304942,0.3938808 -0.257584,0.6075705 0.08432,0.3857966 0.607574,0.5151662 0.900964,0.222931 a 0.54981792,0.54981792 0 0 0 0.15709,-0.321112 c 0,-0.1363 0.07162,-0.197519 0.452791,-0.3904173 0.419291,-0.21138 0.46203,-0.2194653 0.592553,-0.1293686 0.27029,0.1894326 0.734631,0.087789 0.885946,-0.1952092 0.167487,-0.3130266 0.06584,-0.7045983 -0.222929,-0.8593788 -0.159402,-0.085476 -0.166332,-0.110888 -0.166332,-0.667636 0,-0.3996575 0.02772,-0.609882 0.08894,-0.6791872 0.181347,-0.2067592 0.184813,-0.3800211 0.01502,-0.5498177 -0.191743,-0.1928982 -0.296855,-0.202139 -0.489754,-0.046203 -0.183657,0.1490055 -0.185968,0.4239143 -0.0069,0.6145023 0.116667,0.1247488 0.1363,0.2206204 0.133989,0.6872725 -0.0022,0.5394222 -0.0034,0.5428872 -0.207914,0.6699464 -0.155935,0.097026 -0.22293,0.1986736 -0.269133,0.4077431 -0.05775,0.2622027 -0.08894,0.2922354 -0.503615,0.5013043 -0.418139,0.210225 -0.450482,0.2171555 -0.597175,0.1212831 -0.142076,-0.092402 -0.154781,-0.1432292 -0.154781,-0.6202776 0,-0.4932187 0.0093,-0.5278712 0.192897,-0.6988231 0.151316,-0.1420747 0.192898,-0.234481 0.192898,-0.4343099 0,-0.4724274 -0.459721,-0.7334756 -0.920598,-0.5232511 -0.135144,0.062375 -0.234481,0.030031 -0.743871,-0.2402562 L 12.047379,5.70005 12.065849,5.4528632 c 0.01848,-0.2425667 0.02888,-0.2518076 0.479359,-0.4412407 l 0.462031,-0.192898 0.149006,0.14323 c 0.524372,0.502459 1.322532,0.3777102 1.642489,-0.2552732 0.181347,-0.3615396 0.181347,-0.6087268 -0.0022,-0.9321489 -0.207915,-0.3696256 -0.505925,-0.548663 -0.906738,-0.5475079 -0.308406,0 -0.43662,0.051979 -0.810866,0.3257324 -0.0751,0.055444 -0.202154,0.025412 -0.561383,-0.1362992 C 12.127049,3.2431954 12.051968,3.1842864 12.051968,3.0549174 A 0.93561448,0.93561448 0 0 0 11.654621,2.3283723 0.82703704,0.82703704 0 0 0 11.227242,2.2036237 Z m -8.2091514,6.16235 A 0.66879113,0.66879113 0 0 0 2.3492989,9.0520909 c 0,0.1582462 -0.06468,0.22062 -0.5001494,0.4805129 C 1.4852994,9.7497593 1.302797,9.8213733 1.1815137,9.7982723 0.95627277,9.7555337 0.71948179,9.983085 0.78185601,10.184069 c 0.0693043,0.225241 0.15824596,0.30263 0.35229939,0.30263 0.1744169,0 0.4123634,-0.22062 0.3476788,-0.323421 C 1.4425612,10.098598 1.6181335,9.959983 2.0767,9.6943159 2.4740478,9.4656093 2.4798234,9.4632995 2.6773424,9.5730315 c 0.196363,0.1097308 0.1986727,0.112043 0.158245,0.5197855 -0.023097,0.226396 -0.083165,0.472427 -0.1339891,0.545198 -0.2287053,0.326888 0.011561,0.739251 0.3892625,0.667635 0.1155112,-0.0231 0.258738,0.03696 0.4978385,0.203295 0.3060961,0.21369 0.3395934,0.261048 0.3696261,0.531337 0.038115,0.318801 0.1316793,0.473582 0.3257326,0.535957 0.1108868,0.03466 0.1224379,0.107418 0.1224379,0.777367 v 0.739251 l -0.233326,0.219464 c -0.2021385,0.191745 -0.2275505,0.247189 -0.1917435,0.427381 0.1039624,0.5117 0.6468444,0.681496 0.9656466,0.302631 0.2310163,-0.273754 0.2136896,-0.480514 -0.057755,-0.738095 L 4.6640767,14.092857 v -1.381474 l 0.2240847,-0.205604 c 0.1351452,-0.122439 0.2252407,-0.266824 0.2263956,-0.358075 0,-0.218311 0.054287,-0.27491 0.4343109,-0.466652 0.3130266,-0.158246 0.3511433,-0.164021 0.4805129,-0.07277 0.3996576,0.280684 1.0118499,-0.03003 1.0118499,-0.512856 0,-0.295701 -0.3407495,-0.673411 -0.6087277,-0.673411 -0.3638493,0 -0.6722564,0.28646 -0.6745662,0.627208 -0.00227,0.189433 -0.035802,0.225241 -0.3522994,0.381176 C 5.055649,11.601352 5.055649,11.601352 4.832718,11.482379 4.6375098,11.377254 4.5762908,11.371485 4.3475843,11.44079 4.0980876,11.515875 4.0703659,11.510094 3.7989219,11.322967 3.4870502,11.108122 3.4235214,11.033041 3.3957986,10.838988 A 0.53018158,0.53018158 0 0 0 3.2306231,10.582561 C 3.1024084,10.469362 3.0873926,10.406989 3.10934,10.05469 3.1278251,9.743973 3.157847,9.6481007 3.2456388,9.6203789 3.735392,9.4655985 3.7943012,8.6454921 3.3311161,8.4352683 A 0.74618144,0.74618144 0 0 0 3.0192444,8.365964 Z"
     id="path10" /></svg>
