<?xml version="1.0" encoding="UTF-8" standalone="no"?>
<svg
   width="200"
   height="64"
   viewBox="0 0 52.917 16.933"
   xml:space="preserve"
   version="1.1"
   id="svg29337"
   sodipodi:docname="neuralarena-logo.svg"
   inkscape:version="1.2.2 (732a01da63, 2022-12-09)"
   xmlns:inkscape="http://www.inkscape.org/namespaces/inkscape"
   xmlns:sodipodi="http://sodipodi.sourceforge.net/DTD/sodipodi-0.dtd"
   xmlns:xlink="http://www.w3.org/1999/xlink"
   xmlns="http://www.w3.org/2000/svg"
   xmlns:svg="http://www.w3.org/2000/svg"><sodipodi:namedview
     id="namedview29339"
     pagecolor="#ffffff"
     bordercolor="#000000"
     borderopacity="0.25"
     inkscape:showpageshadow="2"
     inkscape:pageopacity="0.0"
     inkscape:pagecheckerboard="0"
     inkscape:deskcolor="#d1d1d1"
     showgrid="false"
     inkscape:zoom="8.8176216"
     inkscape:cx="46.724618"
     inkscape:cy="33.455734"
     inkscape:window-width="2560"
     inkscape:window-height="1017"
     inkscape:window-x="-8"
     inkscape:window-y="-8"
     inkscape:window-maximized="1"
     inkscape:current-layer="svg29337" /><defs
     id="defs29329"><linearGradient
       id="a"><stop
         style="stop-color:#f60;stop-opacity:1"
         offset="0"
         id="stop29323" /><stop
         style="stop-color:#f0f;stop-opacity:1"
         offset="1"
         id="stop29325" /></linearGradient><linearGradient
       xlink:href="#a"
       id="b"
       x1="9.911"
       y1="27.725"
       x2="19.257"
       y2="36.005"
       gradientUnits="userSpaceOnUse"
       gradientTransform="matrix(1.21423,0,0,1.21423,-9.704,-28.448)" /></defs><g
     style="font-weight:500;font-size:6.17492px;font-family:SpaceColonyW03-Medium;-inkscape-font-specification:'SpaceColonyW03-Medium, Medium';direction:rtl;fill:#ff24a4;fill-opacity:1;stroke-width:.370497;stroke-linecap:round;stroke-linejoin:round;stop-color:#000"
     id="g29335"><path
       d="M55.385 37.442q-.26 0-.457-.08-.192-.08-.321-.217-.13-.142-.198-.327-.062-.185-.062-.401 0-.21.062-.396.068-.191.198-.327.13-.142.32-.222.198-.08.458-.08h2.785q-.08-.352-.359-.58-.271-.23-.734-.23h-2.291q-.148 0-.235-.08-.08-.086-.08-.24 0-.155.08-.235.087-.08.235-.08h2.352q.445 0 .772.136.334.135.55.376.222.235.333.556.111.315.111.68v.259q0 .308-.092.58-.093.272-.284.475-.186.198-.47.315-.284.118-.66.118zm1.908-.636q.444 0 .66-.223.217-.228.241-.586h-2.729q-.204 0-.309.117-.105.117-.105.29 0 .167.105.284.105.118.309.118zm-8.373-1.112q0-.364.11-.679.112-.321.328-.556.222-.24.55-.376.333-.136.778-.136h1.148q.445 0 .772.136.333.135.55.376.222.235.333.556.111.315.111.68v1.395q0 .352-.358.352-.346 0-.346-.352v-1.396q0-.234-.074-.438-.068-.204-.21-.352t-.352-.235q-.21-.086-.494-.086h-1.013q-.284 0-.493.086-.21.087-.352.235t-.217.352q-.068.204-.068.438v1.396q0 .352-.345.352-.358 0-.358-.352zm-3.353-1.111q-.47 0-.741.228-.272.229-.352.58h3.05q.303 0 .303.303t-.303.303h-3.05q.08.352.352.58.271.229.74.229h2.34q.322 0 .322.32 0 .316-.321.316h-2.402q-.445 0-.778-.136-.327-.136-.55-.37-.216-.241-.327-.556-.111-.321-.111-.686 0-.364.11-.679.112-.321.328-.556.223-.24.55-.376.333-.136.778-.136h2.402q.321 0 .321.315 0 .32-.321.32zm-3.823 0q-.284 0-.494.086-.21.087-.352.235t-.216.352q-.068.204-.068.438v1.396q0 .352-.346.352-.358 0-.358-.352v-1.396q0-.364.111-.679.112-.321.328-.556.222-.24.55-.376.333-.136.777-.136h1.371q.321 0 .321.315 0 .32-.32.32h-1.304zm-6.107 2.859q-.26 0-.457-.08-.191-.08-.32-.217-.13-.142-.198-.327-.062-.185-.062-.401 0-.21.062-.396.068-.191.197-.327.13-.142.321-.222.198-.08.457-.08h2.785q-.08-.352-.358-.58-.272-.23-.735-.23h-2.29q-.149 0-.235-.08-.08-.086-.08-.24 0-.155.08-.235.086-.08.234-.08h2.353q.445 0 .772.136.333.135.55.376.222.235.333.556.111.315.111.68v.259q0 .308-.093.58-.092.272-.284.475-.185.198-.469.315-.284.118-.66.118zm1.908-.636q.445 0 .661-.223.216-.228.24-.586h-2.728q-.204 0-.31.117-.104.117-.104.29 0 .167.105.284.105.118.309.118zm12.384-3.648q0 .352-.345.352-.359 0-.359-.352v-3.742q0-.352.359-.352.345 0 .345.352zm-5.032.352q-.26 0-.457-.08-.192-.08-.321-.217-.13-.142-.198-.327-.062-.185-.062-.401 0-.21.062-.395.068-.192.198-.328.13-.142.32-.222.198-.08.458-.08h2.785q-.08-.352-.358-.58-.272-.23-.735-.23h-2.291q-.148 0-.235-.08-.08-.086-.08-.24 0-.155.08-.235.087-.08.235-.08h2.352q.445 0 .772.136.334.136.55.376.222.235.333.556.111.315.111.68v.259q0 .308-.092.58-.093.272-.284.476-.185.197-.47.315-.284.117-.66.117zm1.908-.636q.444 0 .66-.222.217-.229.241-.587h-2.729q-.204 0-.309.117-.105.118-.105.29 0 .167.105.285.105.117.309.117zm-4.99-2.223q-.284 0-.494.086-.21.087-.351.235-.143.148-.217.352-.068.204-.068.438v1.396q0 .352-.345.352-.358 0-.358-.352v-1.396q0-.364.11-.679.112-.32.328-.556.222-.24.55-.376.333-.136.778-.136h1.37q.321 0 .321.315 0 .32-.32.32h-1.304zm-2.624 1.111q0 .365-.111.686-.111.315-.333.556-.217.234-.55.37-.327.136-.772.136h-1.148q-.445 0-.778-.136-.328-.136-.55-.37-.216-.241-.327-.556-.111-.321-.111-.686v-1.395q0-.352.358-.352.345 0 .345.352v1.395q0 .235.068.439.075.204.217.352.142.148.351.234.21.087.494.087h1.013q.284 0 .494-.087.21-.086.352-.234.142-.148.21-.352.074-.204.074-.439v-1.395q0-.352.346-.352.358 0 .358.352zm-8.033-1.111q-.47 0-.741.228-.272.229-.352.58h3.05q.303 0 .303.303t-.303.303h-3.05q.08.352.352.58.271.229.74.229h2.34q.322 0 .322.321 0 .315-.321.315h-2.402q-.445 0-.778-.136-.327-.136-.55-.37-.216-.241-.327-.556-.111-.321-.111-.686 0-.364.11-.679.112-.32.328-.556.223-.24.55-.376.333-.136.778-.136h2.402q.321 0 .321.315 0 .32-.321.32zm-7.25 1.111q0-.364.111-.679.112-.32.328-.556.222-.24.55-.376.333-.136.777-.136h1.149q.444 0 .772.136.333.136.55.376.222.235.333.556.11.315.11.68v1.395q0 .352-.357.352-.346 0-.346-.352v-1.396q0-.234-.074-.438-.068-.204-.21-.352t-.352-.235q-.21-.086-.494-.086h-1.013q-.284 0-.494.086-.21.087-.352.235t-.216.352q-.068.204-.068.438v1.396q0 .352-.346.352-.358 0-.358-.352z"
       style="fill:#ff24a4;fill-opacity:1"
       transform="translate(-7.558 -24.786)"
       aria-label="arena"
       id="path29333" /></g><g
     id="g30838"
     transform="translate(0,-1.0197685)"><g
       id="g29365"><path
         style="font-variation-settings:normal;vector-effect:none;fill:#ff5599;fill-opacity:0.44403;stroke-width:0.0652597;stroke-linecap:butt;stroke-linejoin:miter;stroke-miterlimit:4;stroke-dasharray:none;stroke-dashoffset:0;stroke-opacity:1;-inkscape-stroke:none;stop-color:#000000"
         d="M 6.8184107,14.238207 C 5.3286629,14.068459 3.7960849,13.601577 2.4550369,12.908953 1.8644108,12.603907 0.48822162,11.734619 0.48822162,11.666588 c 0,-0.0213 0.12480915,0.03864 0.27735324,0.133191 0.15254487,0.09455 0.68145594,0.371944 1.17535834,0.616426 1.4212852,0.703538 2.9955888,1.177452 4.5494674,1.36953 0.802287,0.09917 2.4877097,0.08379 3.3609147,-0.03068 1.8143507,-0.237841 3.8625977,-0.950247 5.3703567,-1.867877 0.241682,-0.147091 0.461449,-0.280361 0.488368,-0.296157 0.02692,-0.0158 0.04895,-0.01338 0.04895,0.0053 0,0.01875 -0.315694,0.243413 -0.701539,0.499242 -0.805248,0.533905 -2.270974,1.271139 -3.088653,1.553538 -1.595899,0.551169 -3.5356781,0.773015 -5.1503821,0.58903 z"
         id="path11998-0" /><path
         style="fill:#ff5599;fill-opacity:0.208955;stroke-width:0.0652597"
         d="M 6.8184107,16.314042 C 5.3286629,16.144295 3.7960849,15.677411 2.4550369,14.984787 1.8644108,14.679741 0.48822162,13.810454 0.48822162,13.742423 c 0,-0.0213 0.12480915,0.03864 0.27735324,0.13319 0.15254487,0.09455 0.68145594,0.371945 1.17535834,0.616427 1.4212852,0.703538 2.9955888,1.177452 4.5494674,1.369529 0.802287,0.09917 2.4877097,0.08379 3.3609147,-0.03068 1.8143507,-0.237841 3.8625977,-0.950246 5.3703567,-1.867876 0.241682,-0.14709 0.461449,-0.280361 0.488368,-0.296157 0.02692,-0.0158 0.04895,-0.01338 0.04895,0.0054 0,0.01875 -0.315694,0.243412 -0.701539,0.499242 -0.805248,0.533903 -2.270974,1.271137 -3.088653,1.553536 -1.595899,0.551169 -3.5356781,0.773015 -5.1503821,0.589029 z"
         id="path11998-0-1" /><path
         style="fill:#ff5599;stroke-width:0.0652597"
         d="M 6.8184107,11.803093 C 5.3286629,11.633346 3.7960849,11.166463 2.4550369,10.473839 1.8644108,10.168793 0.48822162,9.2995051 0.48822162,9.2314746 c 0,-0.021298 0.12480915,0.038637 0.27735324,0.1331903 0.15254487,0.094552 0.68145594,0.3719444 1.17535834,0.6164267 1.4212852,0.7035374 2.9955888,1.1774514 4.5494674,1.3695294 0.802287,0.09917 2.4877097,0.08379 3.3609147,-0.03068 1.8143507,-0.237842 3.8625977,-0.950247 5.3703567,-1.8678779 0.241682,-0.1470899 0.461449,-0.2803607 0.488368,-0.2961568 0.02692,-0.015796 0.04895,-0.013376 0.04895,0.00538 0,0.018752 -0.315694,0.2434127 -0.701539,0.4992423 -0.805251,0.5339034 -2.270976,1.2711374 -3.088655,1.5535364 -1.595899,0.551169 -3.5356781,0.773015 -5.1503822,0.589029 z"
         id="path11998" /></g><path
       style="fill:url(#b);fill-opacity:1;stroke-width:0.0556211"
       d="M 9.06,4.712 C 8.85,4.713 8.78,4.752 8.696,4.912 8.645,5.009 8.562,5.038 8.24,5.069 7.852,5.107 7.845,5.106 7.687,4.937 7.575,4.817 7.477,4.767 7.353,4.767 7.008,4.767 6.787,5.179 6.979,5.464 7.045,5.562 7.01,5.654 6.659,6.316 L 6.266,7.059 6.01,7.074 C 5.698,7.093 5.498,7.217 5.38,7.462 5.2,7.843 5.332,8.285 5.68,8.465 5.864,8.56 5.884,8.667 5.814,9.175 5.784,9.402 5.762,9.431 5.61,9.462 5.358,9.512 5.097,9.738 4.957,10.026 c -0.174,0.361 -0.132,0.842 0.099,1.127 0.212,0.262 0.583,0.456 0.87,0.454 a 1.23,1.23 0 0 0 0.806,-0.35 l 0.132,-0.143 0.496,0.249 c 0.273,0.137 0.505,0.28 0.517,0.317 0.011,0.037 0.035,0.136 0.054,0.22 0.02,0.092 0.098,0.185 0.199,0.237 l 0.166,0.086 v 0.539 c 0,0.512 -0.007,0.544 -0.143,0.653 A 0.611,0.611 0 0 0 7.97,13.722 c -0.034,0.165 -0.1,0.23 -0.473,0.457 -0.35,0.215 -0.453,0.255 -0.539,0.209 a 0.408,0.408 0 0 0 -0.25,-0.02 c -0.28,0.07 -0.325,0.496 -0.068,0.62 0.169,0.082 0.167,0.082 0.312,-0.02 a 0.55,0.55 0 0 0 0.173,-0.209 c 0.025,-0.066 0.248,-0.24 0.496,-0.386 0.368,-0.22 0.469,-0.257 0.558,-0.209 0.179,0.096 0.37,0.067 0.526,-0.078 0.213,-0.197 0.176,-0.503 -0.084,-0.687 -0.088,-0.063 -0.102,-0.152 -0.102,-0.65 0,-0.529 0.009,-0.58 0.111,-0.612 0.062,-0.02 0.151,-0.111 0.199,-0.203 0.239,-0.462 -0.271,-0.892 -0.74,-0.623 -0.156,0.09 -0.168,0.087 -0.627,-0.153 L 6.993,10.913 7.009,10.573 C 7.034,10.023 6.786,9.63 6.314,9.468 L 6.1,9.394 6.084,8.972 C 6.069,8.595 6.079,8.549 6.168,8.549 6.363,8.549 6.66,8.291 6.738,8.054 6.826,7.787 6.756,7.464 6.575,7.3 6.466,7.201 6.469,7.191 6.865,6.429 7.209,5.765 7.283,5.657 7.397,5.657 7.471,5.657 7.595,5.587 7.677,5.499 7.804,5.364 7.882,5.336 8.232,5.304 8.609,5.269 8.647,5.275 8.739,5.389 8.834,5.507 8.834,5.528 8.72,5.954 L 8.603,6.397 8.343,6.472 A 0.862,0.862 0 0 0 7.934,6.725 C 7.8,6.885 7.787,6.937 7.809,7.234 7.829,7.517 7.857,7.585 8,7.709 8.092,7.789 8.213,7.88 8.268,7.912 8.356,7.962 8.363,8.016 8.328,8.343 8.293,8.676 8.274,8.72 8.154,8.75 8.081,8.768 7.945,8.87 7.853,8.974 c -0.545,0.62 0.318,1.47 0.972,0.957 l 0.143,-0.113 0.417,0.239 c 0.308,0.176 0.409,0.261 0.384,0.325 -0.144,0.37 -0.024,0.819 0.304,1.14 l 0.217,0.21 -0.126,0.335 c -0.083,0.22 -0.176,0.364 -0.275,0.424 -0.278,0.168 -0.256,0.482 0.04,0.588 0.114,0.04 0.17,0.029 0.263,-0.056 0.099,-0.089 0.113,-0.148 0.086,-0.345 -0.023,-0.174 0,-0.317 0.09,-0.535 l 0.121,-0.299 0.34,-0.027 c 0.371,-0.03 0.718,-0.206 0.873,-0.443 A 1.123,1.123 0 0 0 11.222,9.712 1.007,1.007 0 0 0 10.11,9.887 C 10.007,9.977 9.899,10.051 9.869,10.051 9.839,10.051 9.648,9.959 9.445,9.846 9.095,9.651 9.076,9.631 9.076,9.437 9.076,9.191 8.885,8.885 8.665,8.78 8.51,8.705 8.508,8.701 8.547,8.335 8.591,7.921 8.606,7.882 8.713,7.882 8.849,7.882 9.123,7.605 9.19,7.4 9.277,7.138 9.187,6.826 8.963,6.617 L 8.799,6.464 8.916,6.03 C 9.015,5.668 9.06,5.584 9.192,5.515 9.618,5.295 9.522,4.71 9.062,4.712 Z M 5.51,5.125 A 0.495,0.495 0 0 0 5.015,5.632 C 5.015,5.792 4.972,5.845 4.657,6.07 4.263,6.35 4.232,6.36 4.053,6.246 3.506,5.9 2.777,6.369 2.863,7.011 2.902,7.3 3.047,7.494 3.328,7.631 3.53,7.731 3.558,7.77 3.589,7.987 3.657,8.465 3.634,8.637 3.494,8.712 3.381,8.772 3.308,8.757 2.937,8.598 2.703,8.498 2.511,8.381 2.511,8.34 2.511,8.193 2.337,7.932 2.205,7.882 2.038,7.818 1.752,7.91 1.676,8.052 c -0.14,0.499 0.023,0.308 0.14,0.609 0.063,0.052 0.083,0.192 0.083,0.568 0,0.483 -0.005,0.505 -0.166,0.655 -0.206,0.193 -0.217,0.4 -0.03,0.587 a 0.446,0.446 0 0 0 0.624,0.015 C 2.517,10.308 2.5,10.043 2.289,9.866 2.126,9.728 2.122,9.712 2.122,9.227 2.122,8.735 2.124,8.729 2.278,8.665 2.414,8.609 2.486,8.625 2.862,8.796 3.249,8.973 3.29,9.006 3.29,9.149 3.29,9.451 3.662,9.708 3.944,9.601 4.208,9.501 4.291,9.386 4.291,9.125 4.291,8.884 4.257,8.827 3.966,8.592 3.87,8.514 3.845,8.429 3.838,8.161 3.833,7.977 3.828,7.801 3.824,7.771 3.821,7.741 3.906,7.671 4.014,7.615 4.142,7.547 4.254,7.422 4.343,7.245 4.458,7.015 4.469,6.947 4.421,6.765 L 4.364,6.552 4.749,6.296 C 5.108,6.058 5.146,6.044 5.319,6.101 5.557,6.181 5.766,6.126 5.905,5.949 A 0.498,0.498 0 0 0 5.732,5.181 0.496,0.496 0 0 0 5.51,5.125 Z m 5.299,0.036 A 0.7,0.7 0 0 0 10.135,6.06 c 0.129,0.468 0.734,0.655 1.106,0.342 l 0.172,-0.145 0.416,0.183 0.416,0.183 v 0.57 L 11.822,7.37 11.398,7.547 11.224,7.422 c -0.364,-0.259 -0.842,-0.118 -1.055,0.31 -0.181,0.365 0.039,0.808 0.464,0.935 0.194,0.058 0.246,0.05 0.517,-0.082 l 0.302,-0.148 0.473,0.252 c 0.449,0.239 0.475,0.263 0.508,0.47 0.024,0.153 0.09,0.263 0.222,0.374 0.177,0.148 0.19,0.183 0.227,0.616 0.033,0.393 0.026,0.464 -0.051,0.493 -0.142,0.055 -0.264,0.341 -0.223,0.526 0.073,0.334 0.526,0.446 0.78,0.193 a 0.476,0.476 0 0 0 0.136,-0.278 c 0,-0.118 0.062,-0.171 0.392,-0.338 0.363,-0.183 0.4,-0.19 0.513,-0.112 0.234,0.164 0.636,0.076 0.767,-0.169 0.145,-0.271 0.057,-0.61 -0.193,-0.744 -0.138,-0.074 -0.144,-0.096 -0.144,-0.578 0,-0.346 0.024,-0.528 0.077,-0.588 0.157,-0.179 0.16,-0.329 0.013,-0.476 -0.166,-0.167 -0.257,-0.175 -0.424,-0.04 -0.159,0.129 -0.161,0.367 -0.006,0.532 0.101,0.108 0.118,0.191 0.116,0.595 -0.002,0.467 -0.003,0.47 -0.18,0.58 -0.135,0.084 -0.193,0.172 -0.233,0.353 -0.05,0.227 -0.077,0.253 -0.436,0.434 -0.362,0.182 -0.39,0.188 -0.517,0.105 -0.123,-0.08 -0.134,-0.124 -0.134,-0.537 0,-0.427 0.008,-0.457 0.167,-0.605 0.131,-0.123 0.167,-0.203 0.167,-0.376 0,-0.409 -0.398,-0.635 -0.797,-0.453 -0.117,0.054 -0.203,0.026 -0.644,-0.208 l -0.51,-0.27 0.016,-0.214 c 0.016,-0.21 0.025,-0.218 0.415,-0.382 l 0.4,-0.167 0.129,0.124 C 12.932,7.984 13.623,7.876 13.9,7.328 14.057,7.015 14.057,6.801 13.898,6.521 13.718,6.201 13.46,6.046 13.113,6.047 12.846,6.047 12.735,6.092 12.411,6.329 12.346,6.377 12.236,6.351 11.925,6.211 11.587,6.061 11.522,6.01 11.522,5.898 A 0.81,0.81 0 0 0 11.178,5.269 0.716,0.716 0 0 0 10.808,5.161 Z m -7.107,5.335 a 0.579,0.579 0 0 0 -0.58,0.594 c 0,0.137 -0.056,0.191 -0.433,0.416 -0.315,0.188 -0.473,0.25 -0.578,0.23 -0.195,-0.037 -0.4,0.16 -0.346,0.334 0.06,0.195 0.137,0.262 0.305,0.262 0.151,0 0.357,-0.191 0.301,-0.28 -0.034,-0.056 0.118,-0.176 0.515,-0.406 0.344,-0.198 0.349,-0.2 0.52,-0.105 0.17,0.095 0.172,0.097 0.137,0.45 -0.02,0.196 -0.072,0.409 -0.116,0.472 -0.198,0.283 0.01,0.64 0.337,0.578 0.1,-0.02 0.224,0.032 0.431,0.176 0.265,0.185 0.294,0.226 0.32,0.46 0.033,0.276 0.114,0.41 0.282,0.464 0.096,0.03 0.106,0.093 0.106,0.673 v 0.64 l -0.202,0.19 c -0.175,0.166 -0.197,0.214 -0.166,0.37 0.09,0.443 0.56,0.59 0.836,0.262 0.2,-0.237 0.185,-0.416 -0.05,-0.639 L 5.126,15.454 V 14.258 L 5.32,14.08 c 0.117,-0.106 0.195,-0.231 0.196,-0.31 0,-0.189 0.047,-0.238 0.376,-0.404 0.271,-0.137 0.304,-0.142 0.416,-0.063 0.346,0.243 0.876,-0.026 0.876,-0.444 0,-0.256 -0.295,-0.583 -0.527,-0.583 -0.315,0 -0.582,0.248 -0.584,0.543 -0.002,0.164 -0.031,0.195 -0.305,0.33 C 5.465,13.297 5.465,13.297 5.272,13.194 5.103,13.103 5.05,13.098 4.852,13.158 4.636,13.223 4.612,13.218 4.377,13.056 4.107,12.87 4.052,12.805 4.028,12.637 A 0.459,0.459 0 0 0 3.885,12.415 C 3.774,12.317 3.761,12.263 3.78,11.958 3.796,11.689 3.822,11.606 3.898,11.582 4.322,11.448 4.373,10.738 3.972,10.556 a 0.646,0.646 0 0 0 -0.27,-0.06 z"
       transform="translate(0,-2.117)"
       id="path29331" /></g></svg>
