<?xml version="1.0" encoding="UTF-8" standalone="no"?>
<svg
   width="256"
   height="256"
   viewBox="0 0 67.73376 67.732"
   xml:space="preserve"
   version="1.1"
   id="svg16"
   sodipodi:docname="logo.svg"
   inkscape:version="1.2.2 (732a01da63, 2022-12-09)"
   xmlns:inkscape="http://www.inkscape.org/namespaces/inkscape"
   xmlns:sodipodi="http://sodipodi.sourceforge.net/DTD/sodipodi-0.dtd"
   xmlns:xlink="http://www.w3.org/1999/xlink"
   xmlns="http://www.w3.org/2000/svg"
   xmlns:svg="http://www.w3.org/2000/svg"><sodipodi:namedview
     id="namedview26654"
     pagecolor="#ffffff"
     bordercolor="#000000"
     borderopacity="0.25"
     inkscape:showpageshadow="2"
     inkscape:pageopacity="0.0"
     inkscape:pagecheckerboard="0"
     inkscape:deskcolor="#d1d1d1"
     showgrid="false"
     inkscape:zoom="1.6347656"
     inkscape:cx="362.74313"
     inkscape:cy="113.16607"
     inkscape:window-width="2560"
     inkscape:window-height="1017"
     inkscape:window-x="-8"
     inkscape:window-y="-8"
     inkscape:window-maximized="1"
     inkscape:current-layer="svg16" /><defs
     id="defs8"><linearGradient
       id="a"><stop
         style="stop-color:#f60;stop-opacity:1"
         offset="0"
         id="stop2" /><stop
         style="stop-color:#f0f;stop-opacity:1"
         offset="1"
         id="stop4" /></linearGradient><linearGradient
       xlink:href="#a"
       id="b"
       x1="9.9110003"
       y1="27.725"
       x2="19.257"
       y2="36.005001"
       gradientUnits="userSpaceOnUse"
       gradientTransform="matrix(4.4152805,0,0,4.4152805,-32.030169,-119.53467)" /></defs><path
     style="fill:url(#b);fill-opacity:1;stroke-width:0.202254"
     d="m 36.200993,1.0443752 c -0.763619,0.00364 -1.018159,0.1454512 -1.323605,0.7272561 -0.185452,0.3527192 -0.487263,0.4581713 -1.658145,0.570896 -1.410877,0.1381786 -1.43633,0.1345423 -2.010863,-0.479989 -0.407263,-0.4363536 -0.763618,-0.6181677 -1.214518,-0.6181677 -1.254516,0 -2.058134,1.4981475 -1.359969,2.5344874 0.239996,0.3563554 0.112732,0.6908933 -1.163609,3.0981106 l -1.429058,2.7017564 -0.930888,0.05455 c -1.134519,0.06908 -1.861776,0.519989 -2.290857,1.410877 -0.654529,1.385423 -0.174541,2.992659 1.090885,3.64719 0.669075,0.345446 0.741801,0.734527 0.487262,2.581759 -0.109091,0.825434 -0.189087,0.930886 -0.741801,1.043612 -0.916344,0.181813 -1.865412,1.003612 -2.374491,2.050861 -0.632714,1.312697 -0.47999,3.061749 0.359991,4.098089 0.770891,0.952705 2.119951,1.658143 3.163564,1.650871 a 4.4726247,4.4726247 0 0 0 2.930842,-1.2727 l 0.479988,-0.519988 1.803595,0.905434 c 0.992705,0.49817 1.836322,1.018159 1.879958,1.152701 0.04,0.134542 0.12727,0.494535 0.196359,0.799981 0.07272,0.334538 0.356355,0.672712 0.723619,0.861799 l 0.603622,0.31272 v 1.959956 c 0,1.861775 -0.02546,1.978136 -0.519987,2.374491 a 2.2217672,2.2217672 0 0 0 -0.66544,1.116338 c -0.123633,0.599986 -0.363627,0.836344 -1.71996,1.66178 -1.272698,0.781799 -1.647235,0.927251 -1.959955,0.759982 a 1.4836023,1.4836023 0 0 0 -0.90907,-0.07272 c -1.018158,0.254539 -1.181791,1.803595 -0.247268,2.254493 0.614533,0.298175 0.607259,0.298175 1.13452,-0.07272 a 1.9999541,1.9999541 0 0 0 0.629077,-0.759983 c 0.0909,-0.239994 0.901797,-0.872708 1.803595,-1.403604 1.33815,-0.799983 1.705415,-0.934525 2.029044,-0.759983 0.650894,0.349083 1.345423,0.243631 1.912684,-0.28363 0.774527,-0.716347 0.639985,-1.829049 -0.305448,-2.498125 -0.319993,-0.229085 -0.3709,-0.552714 -0.3709,-2.363582 0,-1.923592 0.03273,-2.109042 0.403626,-2.225403 0.22545,-0.07272 0.549079,-0.403628 0.72362,-0.738165 0.869071,-1.679961 -0.985431,-3.243562 -2.690847,-2.265403 -0.56726,0.327266 -0.610895,0.316357 -2.279948,-0.556351 l -1.705415,-0.890889 0.05817,-1.236334 c 0.09091,-1.999955 -0.81089,-3.429013 -2.527215,-4.018091 l -0.778164,-0.269083 -0.05819,-1.534512 c -0.05455,-1.370877 -0.01818,-1.538146 0.305448,-1.538146 0.709074,0 1.789049,-0.938161 2.07268,-1.799959 0.319992,-0.970886 0.06545,-2.145405 -0.592714,-2.741755 -0.396355,-0.359992 -0.385446,-0.396355 1.054521,-3.1672004 1.25088,-2.4144896 1.519965,-2.8072078 1.934501,-2.8072078 0.269084,0 0.719984,-0.2545398 1.018158,-0.5745323 0.461808,-0.4908979 0.745438,-0.5927138 2.018135,-0.7090748 1.370879,-0.1272697 1.509057,-0.1054519 1.843595,0.3090838 0.345446,0.4290812 0.345446,0.5054431 -0.06909,2.0544985 l -0.425443,1.6108606 -0.945432,0.272722 a 3.1344736,3.1344736 0 0 0 -1.487238,0.919978 c -0.487262,0.5818054 -0.534533,0.7708924 -0.454535,1.8508674 0.07272,1.029067 0.174541,1.276334 0.694529,1.727232 0.334537,0.290903 0.774527,0.621805 0.974523,0.738166 0.319993,0.181813 0.345447,0.378172 0.218176,1.567236 -0.127268,1.210882 -0.196359,1.370878 -0.632712,1.479967 -0.265448,0.06546 -0.759983,0.436353 -1.09452,0.814526 -1.981772,2.254494 1.156337,5.345332 3.534464,3.479921 l 0.519988,-0.4109 1.516329,0.869071 c 1.119975,0.639985 1.487239,0.949068 1.396332,1.18179 -0.523625,1.345425 -0.08727,2.978114 1.105429,4.14536 l 0.789073,0.763619 -0.458172,1.218154 c -0.301811,0.799982 -0.639985,1.323606 -0.999977,1.541783 -1.010886,0.610896 -0.930888,1.752687 0.145452,2.138133 0.414535,0.145451 0.618167,0.105451 0.956342,-0.203632 0.359991,-0.323628 0.410899,-0.538169 0.31272,-1.254516 -0.08363,-0.632713 0,-1.152701 0.327265,-1.94541 l 0.43999,-1.087249 1.236334,-0.09818 c 1.34906,-0.109091 2.61085,-0.749073 3.174473,-1.610871 a 4.0835428,4.0835428 0 0 0 -1.745415,-6.043498 3.6617342,3.6617342 0 0 0 -4.043543,0.636349 c -0.374537,0.327265 -0.767255,0.59635 -0.876343,0.59635 -0.109091,0 -0.803618,-0.334538 -1.541783,-0.745437 -1.272698,-0.709075 -1.341787,-0.781801 -1.341787,-1.487239 0,-0.894526 -0.69453,-2.007227 -1.494512,-2.389037 -0.563623,-0.272721 -0.570896,-0.287265 -0.429081,-1.618144 0.159996,-1.50542 0.214541,-1.647235 0.603623,-1.647235 0.494534,0 1.490875,-1.00725 1.734505,-1.752688 0.316357,-0.952705 -0.01085,-2.087224 -0.825435,-2.8472064 l -0.596332,-0.556355 0.425445,-1.578145 C 36.037361,4.5206592 36.200993,4.2152117 36.680982,3.9643083 38.230037,3.1643266 37.880954,1.0371026 36.208266,1.0443752 Z M 23.292198,2.546159 A 1.7999587,1.7999587 0 0 0 21.49224,4.389753 c 0,0.5818049 -0.156361,0.7745277 -1.301788,1.5926908 -1.432695,1.0181588 -1.54542,1.0545218 -2.196315,0.6399858 -1.989045,-1.2581535 -4.639893,0.447262 -4.327173,2.7817544 0.141815,1.050885 0.669076,1.756323 1.690871,2.254493 0.734528,0.363628 0.836344,0.505444 0.949068,1.294516 0.247268,1.738142 0.163633,2.363583 -0.345446,2.636303 -0.4109,0.218177 -0.676348,0.163633 -2.025408,-0.414535 -0.85089,-0.363629 -1.549056,-0.789073 -1.549056,-0.938161 0,-0.534534 -0.632712,-1.483602 -1.112701,-1.665416 -0.607259,-0.232722 -1.6472355,0.10181 -1.9235928,0.618167 -0.5090792,1.814504 0.083633,1.119974 0.5090788,2.214495 0.229086,0.189087 0.301812,0.698166 0.301812,2.065407 0,1.756323 -0.01818,1.836321 -0.6036225,2.381764 -0.7490736,0.701802 -0.7890732,1.454511 -0.1090911,2.134496 a 1.6217811,1.6217811 0 0 0 2.2690396,0.05455 c 0.690893,-0.647259 0.629077,-1.610873 -0.138178,-2.254495 -0.592715,-0.501805 -0.60726,-0.559986 -0.60726,-2.323583 0,-1.789049 0.0072,-1.810867 0.56726,-2.043589 0.494534,-0.203632 0.756346,-0.14545 2.123587,0.476353 1.407241,0.643622 1.556328,0.763618 1.556328,1.283607 0,1.098156 1.352697,2.032681 2.378128,1.643598 0.959977,-0.363627 1.26179,-0.781799 1.26179,-1.730869 0,-0.876344 -0.123635,-1.083612 -1.181792,-1.938137 -0.349083,-0.28363 -0.43999,-0.592714 -0.465444,-1.567238 -0.01818,-0.669075 -0.03637,-1.30906 -0.05091,-1.418149 -0.01097,-0.109091 0.298174,-0.363627 0.690892,-0.567259 0.465444,-0.247268 0.872709,-0.701802 1.196337,-1.345424 0.418173,-0.836344 0.458171,-1.083611 0.28363,-1.745413 l -0.207263,-0.7745334 1.399968,-0.930887 c 1.305424,-0.865435 1.443604,-0.9163429 2.072679,-0.7090748 0.865435,0.2909018 1.625418,0.090901 2.130861,-0.5527147 A 1.8108676,1.8108676 0 0 0 24.099452,2.7497907 1.803595,1.803595 0 0 0 23.292198,2.546159 Z M 42.560847,2.6770651 A 2.5453962,2.5453962 0 0 0 40.109995,5.946081 c 0.469079,1.7017786 2.669029,2.3817636 4.021726,1.2436076 l 0.62544,-0.527261 1.512692,0.66544 1.512693,0.665439 v 2.0726794 l -1.538147,0.643622 -1.541782,0.643621 -0.632713,-0.454535 c -1.323606,-0.941795 -3.061749,-0.429081 -3.836276,1.127248 -0.658166,1.327241 0.141815,2.938114 1.687234,3.399921 0.705438,0.210905 0.894525,0.181814 1.879957,-0.298174 l 1.098157,-0.53817 1.71996,0.916342 c 1.632689,0.869071 1.727233,0.956342 1.84723,1.709052 0.08727,0.556351 0.327266,0.956342 0.807255,1.359969 0.643621,0.53817 0.690893,0.665439 0.825436,2.239949 0.12,1.429058 0.09454,1.687234 -0.185452,1.792687 -0.516351,0.199994 -0.959977,1.239971 -0.81089,1.912682 0.265448,1.214518 1.912684,1.621782 2.836299,0.701803 a 1.7308694,1.7308694 0 0 0 0.494534,-1.010886 c 0,-0.429081 0.225449,-0.621804 1.425422,-1.229063 1.31997,-0.665439 1.454512,-0.690893 1.865412,-0.407264 0.85089,0.59635 2.312674,0.276358 2.789027,-0.614531 0.527261,-0.985432 0.207268,-2.218131 -0.701803,-2.705392 -0.501807,-0.269085 -0.523624,-0.349083 -0.523624,-2.10177 0,-1.258153 0.08727,-1.919956 0.279994,-2.138134 0.570896,-0.650894 0.581804,-1.196336 0.04726,-1.730869 -0.603622,-0.607258 -0.934523,-0.636349 -1.541782,-0.145451 -0.578168,0.469081 -0.585442,1.334515 -0.02182,1.934501 0.367264,0.392719 0.429081,0.69453 0.421808,2.163587 -0.0072,1.698143 -0.01097,1.709051 -0.65453,2.109043 -0.490898,0.305447 -0.701802,0.62544 -0.847253,1.283607 -0.181814,0.825436 -0.279993,0.919979 -1.585418,1.578145 -1.316334,0.661803 -1.41815,0.683621 -1.879957,0.38181 -0.447263,-0.290903 -0.487261,-0.450899 -0.487261,-1.952683 0,-1.552691 0.02909,-1.66178 0.607258,-2.19995 0.476352,-0.447262 0.607259,-0.738164 0.607259,-1.367241 0,-1.487238 -1.447239,-2.309038 -2.898116,-1.647235 -0.425444,0.19636 -0.738164,0.09454 -2.341764,-0.756345 l -1.854503,-0.981797 0.05817,-0.778163 c 0.05819,-0.763619 0.0909,-0.79271 1.509056,-1.38906 l 1.454513,-0.607258 0.46908,0.450899 c 1.650871,1.581781 4.163541,1.189062 5.17079,-0.803619 0.570896,-1.138155 0.570896,-1.916319 -0.0072,-2.9344774 -0.654531,-1.16361 -1.592692,-1.7272335 -2.85448,-1.7235972 -0.970887,0 -1.374515,0.1636326 -2.552669,1.0254312 -0.236407,0.174542 -0.636397,0.08 -1.767281,-0.429081 C 45.389874,5.9497173 45.153515,5.7642671 45.153515,5.3570037 A 2.945387,2.945387 0 0 0 43.902634,3.0697834 2.6035767,2.6035767 0 0 0 42.557211,2.6770651 Z M 16.717803,22.07662 a 2.1054063,2.1054063 0 0 0 -2.109043,2.15995 c 0,0.498171 -0.203631,0.69453 -1.574508,1.512693 -1.145429,0.683621 -1.719961,0.90907 -2.10177,0.836344 -0.709076,-0.134542 -1.4545126,0.581805 -1.2581535,1.214518 0.2181765,0.709075 0.4981705,0.952706 1.1090655,0.952706 0.549078,0 1.298152,-0.69453 1.09452,-1.018158 -0.123633,-0.203633 0.429081,-0.639986 1.872685,-1.47633 1.25088,-0.719985 1.269061,-0.727257 1.890866,-0.381809 0.618168,0.345446 0.62544,0.352718 0.49817,1.636325 -0.07272,0.712712 -0.261813,1.487239 -0.421809,1.716324 -0.719983,1.029068 0.03637,2.32722 1.225427,2.10177 0.363627,-0.07272 0.814527,0.11636 1.567237,0.639985 0.963614,0.672713 1.069066,0.8218 1.163609,1.67269 0.12,1.003613 0.414536,1.490874 1.025432,1.687233 0.349083,0.109092 0.385444,0.338174 0.385444,2.447217 v 2.32722 l -0.734527,0.690892 c -0.63635,0.603624 -0.716348,0.778165 -0.603623,1.345425 0.327266,1.610872 2.036316,2.145405 3.03993,0.952705 0.727257,-0.861798 0.672712,-1.512692 -0.181814,-2.323583 l -0.709074,-0.665439 v -4.348991 l 0.705438,-0.647258 c 0.425445,-0.385446 0.709074,-0.839981 0.712711,-1.127248 0,-0.687256 0.170905,-0.865434 1.367241,-1.469056 0.985433,-0.498171 1.105429,-0.516352 1.512693,-0.229087 1.258153,0.883616 3.185381,-0.09454 3.185381,-1.614508 0,-0.930888 -1.072703,-2.119951 -1.916319,-2.119951 -1.145428,0 -2.116316,0.901797 -2.123588,1.9745 -0.0072,0.596351 -0.11272,0.709075 -1.109066,1.199973 -1.101792,0.538169 -1.101792,0.538169 -1.803595,0.163633 -0.614531,-0.330902 -0.807253,-0.349083 -1.527238,-0.130907 -0.785436,0.236359 -0.872706,0.218177 -1.727232,-0.3709 -0.981797,-0.676348 -1.181791,-0.912707 -1.269062,-1.523602 a 1.6690527,1.6690527 0 0 0 -0.519988,-0.807254 c -0.403627,-0.356355 -0.450899,-0.552714 -0.381809,-1.66178 0.05819,-0.97816 0.152724,-1.279971 0.429081,-1.367241 1.541782,-0.487263 1.727232,-3.069022 0.269084,-3.730823 A 2.349037,2.349037 0 0 0 16.717803,22.07662 Z"
     id="path10" /><path
     style="font-variation-settings:normal;opacity:1;vector-effect:none;fill:#ff5599;fill-opacity:0.44403;stroke-width:0.264585;stroke-linecap:butt;stroke-linejoin:miter;stroke-miterlimit:4;stroke-dasharray:none;stroke-dashoffset:0;stroke-opacity:1;-inkscape-stroke:none;stop-color:#000000;stop-opacity:1"
     d="m 28.575183,58.375297 c -6.039946,-0.688212 -12.25354,-2.581114 -17.690606,-5.38925 -2.3946002,-1.23676 -7.9741399,-4.761149 -7.9741399,-5.036968 0,-0.08635 0.5060187,0.15665 1.1244857,0.539999 0.618468,0.383347 2.762854,1.507989 4.765303,2.499204 5.7623742,2.852382 12.1451382,4.773791 18.4450922,5.552539 3.252745,0.402079 10.086025,0.3397 13.626295,-0.12439 7.356,-0.964288 15.66029,-3.852622 21.77326,-7.57301 0.97986,-0.596353 1.87087,-1.136678 1.98001,-1.200721 0.10915,-0.06404 0.19844,-0.05423 0.19844,0.0218 0,0.07603 -1.27993,0.986878 -2.84428,2.024099 -3.26475,2.164633 -9.2073,5.153631 -12.52245,6.298573 -6.47032,2.234627 -14.33485,3.134065 -20.88141,2.388125 z"
     id="path11998-0" /><path
     style="fill:#ff5599;fill-opacity:0.20895523;stroke-width:0.264585"
     d="M 28.575183,66.791439 C 22.535237,66.103227 16.321643,64.210325 10.884577,61.402189 8.4899768,60.165429 2.9104371,56.64104 2.9104371,56.365221 c 0,-0.08635 0.5060187,0.15665 1.1244857,0.539999 0.618468,0.383347 2.762854,1.507989 4.765303,2.499204 5.7623742,2.852382 12.1451382,4.773791 18.4450922,5.552539 3.252745,0.402079 10.086025,0.3397 13.626295,-0.12439 7.356,-0.964288 15.66029,-3.852622 21.77326,-7.57301 0.97986,-0.596353 1.87087,-1.136678 1.98001,-1.200721 0.10915,-0.06404 0.19844,-0.05423 0.19844,0.0218 0,0.07603 -1.27993,0.986878 -2.84428,2.024099 -3.26475,2.164633 -9.2073,5.153631 -12.52245,6.298573 -6.47032,2.234627 -14.33485,3.134065 -20.88141,2.388125 z"
     id="path11998-0-1" /><g
     style="font-weight:500;font-size:6.17492px;font-family:SpaceColonyW03-Medium;direction:rtl;fill:#ff24a4;fill-opacity:1;stroke-width:0.370497;stroke-linecap:round;stroke-linejoin:round;stop-color:#000000"
     id="g14"
     transform="matrix(1.8124285,0,0,1.8124285,-27.4802,40.512587)"><path
       d="m 55.385,37.442 q -0.26,0 -0.457,-0.08 -0.192,-0.08 -0.321,-0.217 -0.13,-0.142 -0.198,-0.327 -0.062,-0.185 -0.062,-0.401 0,-0.21 0.062,-0.396 0.068,-0.191 0.198,-0.327 0.13,-0.142 0.32,-0.222 0.198,-0.08 0.458,-0.08 h 2.785 q -0.08,-0.352 -0.359,-0.58 -0.271,-0.23 -0.734,-0.23 h -2.291 q -0.148,0 -0.235,-0.08 -0.08,-0.086 -0.08,-0.24 0,-0.155 0.08,-0.235 0.087,-0.08 0.235,-0.08 h 2.352 q 0.445,0 0.772,0.136 0.334,0.135 0.55,0.376 0.222,0.235 0.333,0.556 0.111,0.315 0.111,0.68 v 0.259 q 0,0.308 -0.092,0.58 -0.093,0.272 -0.284,0.475 -0.186,0.198 -0.47,0.315 -0.284,0.118 -0.66,0.118 z m 1.908,-0.636 q 0.444,0 0.66,-0.223 0.217,-0.228 0.241,-0.586 h -2.729 q -0.204,0 -0.309,0.117 -0.105,0.117 -0.105,0.29 0,0.167 0.105,0.284 0.105,0.118 0.309,0.118 z M 48.92,35.694 q 0,-0.364 0.11,-0.679 0.112,-0.321 0.328,-0.556 0.222,-0.24 0.55,-0.376 0.333,-0.136 0.778,-0.136 h 1.148 q 0.445,0 0.772,0.136 0.333,0.135 0.55,0.376 0.222,0.235 0.333,0.556 0.111,0.315 0.111,0.68 v 1.395 q 0,0.352 -0.358,0.352 -0.346,0 -0.346,-0.352 v -1.396 q 0,-0.234 -0.074,-0.438 -0.068,-0.204 -0.21,-0.352 -0.142,-0.148 -0.352,-0.235 -0.21,-0.086 -0.494,-0.086 h -1.013 q -0.284,0 -0.493,0.086 -0.21,0.087 -0.352,0.235 -0.142,0.148 -0.217,0.352 -0.068,0.204 -0.068,0.438 v 1.396 q 0,0.352 -0.345,0.352 -0.358,0 -0.358,-0.352 z m -3.353,-1.111 q -0.47,0 -0.741,0.228 -0.272,0.229 -0.352,0.58 h 3.05 q 0.303,0 0.303,0.303 0,0.303 -0.303,0.303 h -3.05 q 0.08,0.352 0.352,0.58 0.271,0.229 0.74,0.229 h 2.34 q 0.322,0 0.322,0.32 0,0.316 -0.321,0.316 h -2.402 q -0.445,0 -0.778,-0.136 -0.327,-0.136 -0.55,-0.37 -0.216,-0.241 -0.327,-0.556 -0.111,-0.321 -0.111,-0.686 0,-0.364 0.11,-0.679 0.112,-0.321 0.328,-0.556 0.223,-0.24 0.55,-0.376 0.333,-0.136 0.778,-0.136 h 2.402 q 0.321,0 0.321,0.315 0,0.32 -0.321,0.32 z m -3.823,0 q -0.284,0 -0.494,0.086 -0.21,0.087 -0.352,0.235 -0.142,0.148 -0.216,0.352 -0.068,0.204 -0.068,0.438 v 1.396 q 0,0.352 -0.346,0.352 -0.358,0 -0.358,-0.352 v -1.396 q 0,-0.364 0.111,-0.679 0.112,-0.321 0.328,-0.556 0.222,-0.24 0.55,-0.376 0.333,-0.136 0.777,-0.136 h 1.371 q 0.321,0 0.321,0.315 0,0.32 -0.32,0.32 h -1.304 z m -6.107,2.859 q -0.26,0 -0.457,-0.08 -0.191,-0.08 -0.32,-0.217 -0.13,-0.142 -0.198,-0.327 -0.062,-0.185 -0.062,-0.401 0,-0.21 0.062,-0.396 0.068,-0.191 0.197,-0.327 0.13,-0.142 0.321,-0.222 0.198,-0.08 0.457,-0.08 h 2.785 q -0.08,-0.352 -0.358,-0.58 -0.272,-0.23 -0.735,-0.23 h -2.29 q -0.149,0 -0.235,-0.08 -0.08,-0.086 -0.08,-0.24 0,-0.155 0.08,-0.235 0.086,-0.08 0.234,-0.08 h 2.353 q 0.445,0 0.772,0.136 0.333,0.135 0.55,0.376 0.222,0.235 0.333,0.556 0.111,0.315 0.111,0.68 v 0.259 q 0,0.308 -0.093,0.58 -0.092,0.272 -0.284,0.475 -0.185,0.198 -0.469,0.315 -0.284,0.118 -0.66,0.118 z m 1.908,-0.636 q 0.445,0 0.661,-0.223 0.216,-0.228 0.24,-0.586 h -2.728 q -0.204,0 -0.31,0.117 -0.104,0.117 -0.104,0.29 0,0.167 0.105,0.284 0.105,0.118 0.309,0.118 z m 12.384,-3.648 q 0,0.352 -0.345,0.352 -0.359,0 -0.359,-0.352 v -3.742 q 0,-0.352 0.359,-0.352 0.345,0 0.345,0.352 z m -5.032,0.352 q -0.26,0 -0.457,-0.08 -0.192,-0.08 -0.321,-0.217 -0.13,-0.142 -0.198,-0.327 -0.062,-0.185 -0.062,-0.401 0,-0.21 0.062,-0.395 0.068,-0.192 0.198,-0.328 0.13,-0.142 0.32,-0.222 0.198,-0.08 0.458,-0.08 h 2.785 q -0.08,-0.352 -0.358,-0.58 -0.272,-0.23 -0.735,-0.23 h -2.291 q -0.148,0 -0.235,-0.08 -0.08,-0.086 -0.08,-0.24 0,-0.155 0.08,-0.235 0.087,-0.08 0.235,-0.08 h 2.352 q 0.445,0 0.772,0.136 0.334,0.136 0.55,0.376 0.222,0.235 0.333,0.556 0.111,0.315 0.111,0.68 v 0.259 q 0,0.308 -0.092,0.58 -0.093,0.272 -0.284,0.476 -0.185,0.197 -0.47,0.315 -0.284,0.117 -0.66,0.117 z m 1.908,-0.636 q 0.444,0 0.66,-0.222 0.217,-0.229 0.241,-0.587 h -2.729 q -0.204,0 -0.309,0.117 -0.105,0.118 -0.105,0.29 0,0.167 0.105,0.285 0.105,0.117 0.309,0.117 z m -4.99,-2.223 q -0.284,0 -0.494,0.086 -0.21,0.087 -0.351,0.235 -0.143,0.148 -0.217,0.352 -0.068,0.204 -0.068,0.438 v 1.396 q 0,0.352 -0.345,0.352 -0.358,0 -0.358,-0.352 v -1.396 q 0,-0.364 0.11,-0.679 0.112,-0.32 0.328,-0.556 0.222,-0.24 0.55,-0.376 0.333,-0.136 0.778,-0.136 h 1.37 q 0.321,0 0.321,0.315 0,0.32 -0.32,0.32 h -1.304 z m -2.624,1.111 q 0,0.365 -0.111,0.686 -0.111,0.315 -0.333,0.556 -0.217,0.234 -0.55,0.37 -0.327,0.136 -0.772,0.136 h -1.148 q -0.445,0 -0.778,-0.136 -0.328,-0.136 -0.55,-0.37 -0.216,-0.241 -0.327,-0.556 -0.111,-0.321 -0.111,-0.686 v -1.395 q 0,-0.352 0.358,-0.352 0.345,0 0.345,0.352 v 1.395 q 0,0.235 0.068,0.439 0.075,0.204 0.217,0.352 0.142,0.148 0.351,0.234 0.21,0.087 0.494,0.087 h 1.013 q 0.284,0 0.494,-0.087 0.21,-0.086 0.352,-0.234 0.142,-0.148 0.21,-0.352 0.074,-0.204 0.074,-0.439 v -1.395 q 0,-0.352 0.346,-0.352 0.358,0 0.358,0.352 z m -8.033,-1.111 q -0.47,0 -0.741,0.228 -0.272,0.229 -0.352,0.58 h 3.05 q 0.303,0 0.303,0.303 0,0.303 -0.303,0.303 h -3.05 q 0.08,0.352 0.352,0.58 0.271,0.229 0.74,0.229 h 2.34 q 0.322,0 0.322,0.321 0,0.315 -0.321,0.315 h -2.402 q -0.445,0 -0.778,-0.136 -0.327,-0.136 -0.55,-0.37 -0.216,-0.241 -0.327,-0.556 -0.111,-0.321 -0.111,-0.686 0,-0.364 0.11,-0.679 0.112,-0.32 0.328,-0.556 0.223,-0.24 0.55,-0.376 0.333,-0.136 0.778,-0.136 h 2.402 q 0.321,0 0.321,0.315 0,0.32 -0.321,0.32 z m -7.25,1.111 q 0,-0.364 0.111,-0.679 0.112,-0.32 0.328,-0.556 0.222,-0.24 0.55,-0.376 0.333,-0.136 0.777,-0.136 h 1.149 q 0.444,0 0.772,0.136 0.333,0.136 0.55,0.376 0.222,0.235 0.333,0.556 0.11,0.315 0.11,0.68 v 1.395 q 0,0.352 -0.357,0.352 -0.346,0 -0.346,-0.352 v -1.396 q 0,-0.234 -0.074,-0.438 -0.068,-0.204 -0.21,-0.352 -0.142,-0.148 -0.352,-0.235 -0.21,-0.086 -0.494,-0.086 h -1.013 q -0.284,0 -0.494,0.086 -0.21,0.087 -0.352,0.235 -0.142,0.148 -0.216,0.352 -0.068,0.204 -0.068,0.438 v 1.396 q 0,0.352 -0.346,0.352 -0.358,0 -0.358,-0.352 z"
       style="fill:#ff24a4;fill-opacity:1"
       transform="translate(-7.558,-24.786)"
       aria-label="arena"
       id="path12" /></g><path
     style="fill:#ff5599;stroke-width:0.264585"
     d="m 28.575183,48.502515 c -6.039946,-0.688212 -12.25354,-2.581114 -17.690606,-5.38925 -2.3945999,-1.23676 -7.9741399,-4.761149 -7.9741399,-5.036968 0,-0.08635 0.506019,0.15665 1.124486,0.539999 0.618468,0.383347 2.762854,1.507989 4.765303,2.499204 5.7623739,2.852382 12.1451379,4.773791 18.4450919,5.552539 3.252745,0.402079 10.086025,0.3397 13.626295,-0.12439 7.356,-0.964288 15.66029,-3.852622 21.77326,-7.57301 0.97986,-0.596353 1.87087,-1.136678 1.98001,-1.200721 0.10915,-0.06404 0.19844,-0.05423 0.19844,0.0218 0,0.07603 -1.27993,0.986878 -2.84428,2.024099 -3.26475,2.164633 -9.2073,5.153631 -12.52245,6.298573 -6.47032,2.234627 -14.33485,3.134065 -20.88141,2.388125 z"
     id="path11998" /></svg>
